<?xml version="1.0" standalone="no"?>
<!DOCTYPE svg PUBLIC "-//W3C//DTD SVG 20010904//EN"
 "http://www.w3.org/TR/2001/REC-SVG-20010904/DTD/svg10.dtd">
<svg version="1.0" xmlns="http://www.w3.org/2000/svg"
 width="700.000000pt" height="700.000000pt" viewBox="0 0 700.000000 700.000000"
 preserveAspectRatio="xMidYMid meet">
<metadata>
Created by potrace 1.11, written by Peter Selinger 2001-2013
</metadata>
<g transform="translate(0.000000,700.000000) scale(0.100000,-0.100000)"
fill="#000000" stroke="none">
<path d="M3455 6101 c-37 -22 -1754 -1014 -1813 -1048 -23 -13 -93 -54 -155
-90 -62 -36 -138 -79 -170 -97 -32 -17 -66 -38 -75 -47 -16 -14 -17 -111 -16
-1322 0 -719 3 -1309 5 -1311 5 -4 116 -69 176 -102 23 -13 108 -62 188 -109
81 -47 149 -85 151 -85 2 0 34 -19 71 -42 38 -22 84 -50 103 -61 81 -45 837
-481 860 -496 14 -8 39 -23 55 -31 17 -9 59 -34 95 -55 36 -20 85 -49 110 -63
25 -13 50 -28 55 -32 6 -4 30 -19 55 -32 25 -14 112 -64 194 -112 83 -47 153
-86 157 -86 7 0 11 3 509 290 184 106 418 242 520 300 270 156 448 259 484
280 17 11 42 25 56 33 35 19 694 399 699 403 5 5 5 2623 0 2628 -4 3 -620 360
-745 432 -70 40 -334 193 -392 227 -26 15 -56 32 -67 37 -11 6 -36 20 -55 31
-247 148 -1001 579 -1012 578 -7 0 -26 -8 -43 -18z m160 -244 c55 -32 107 -62
115 -67 8 -5 85 -49 170 -98 85 -49 317 -183 515 -297 198 -114 461 -266 585
-338 124 -71 245 -141 270 -156 25 -14 89 -51 143 -81 53 -30 97 -57 97 -60 0
-3 -168 -101 -373 -219 -204 -118 -655 -379 -1002 -579 -346 -201 -634 -365
-640 -365 -5 0 -140 76 -300 168 -159 93 -317 184 -350 202 -33 19 -76 43 -95
55 -19 11 -183 106 -365 211 -524 302 -900 519 -903 522 -2 2 258 154 343 201
11 6 151 86 310 179 160 92 328 189 375 216 47 27 92 54 100 59 30 19 165 95
175 99 6 2 21 12 35 21 14 9 48 29 75 45 28 15 122 69 210 120 340 197 390
225 400 223 6 -2 55 -29 110 -61z m-2038 -1358 c76 -44 145 -84 153 -89 8 -5
44 -26 80 -46 82 -47 644 -372 810 -468 69 -40 145 -84 170 -98 25 -14 101
-58 170 -98 111 -65 248 -144 350 -202 19 -11 49 -28 66 -39 l31 -19 0 -1154
0 -1155 -46 26 c-25 15 -50 30 -56 33 -5 4 -30 19 -55 32 -25 14 -133 77 -240
139 -107 62 -211 122 -232 133 -20 12 -74 43 -120 70 -45 26 -103 60 -128 74
-44 25 -427 246 -525 303 -27 16 -174 101 -325 188 l-275 158 -2 1152 c-1
1112 0 1152 17 1146 10 -3 81 -42 157 -86z"/>
<path d="M2215 3721 c-115 -28 -198 -155 -197 -304 0 -119 56 -265 133 -347
l42 -45 -13 -75 c-7 -41 -14 -83 -16 -93 -1 -9 -14 -79 -28 -155 -28 -151 -30
-162 -45 -242 -6 -30 -12 -66 -15 -80 -2 -14 -7 -41 -11 -61 l-7 -35 219 -139
c120 -76 226 -146 237 -154 18 -15 18 -13 12 69 -4 47 -8 101 -10 120 -5 42
-16 165 -22 235 -2 28 -6 73 -9 100 -5 53 -12 124 -20 215 -2 30 -7 83 -10
116 l-7 62 51 7 c162 22 258 202 216 406 -53 259 -292 450 -500 400z"/>
</g>
</svg>
