<svg height="48" width="48" xmlns="http://www.w3.org/2000/svg" viewBox="0 0 100 100"><path d="M33.059 62.965v-8.623h3v6.89L50 69.279l1.135-.654 1.51 2.592L50 72.744zM76.751 78.307H59.689L51.158 63.53l8.531-14.776h1.645v3.152L54.623 63.53l6.799 11.777h13.597l6.797-11.777-6.797-11.776h-5.508v-3h7.24l8.53 14.776zM58.53 47.246H41.469l-.957-1.658 2.592-1.51.097.168h13.597l6.799-11.776-6.799-11.777H43.201L36.403 32.47l2.613 4.526-2.593 1.51-3.484-6.036 8.53-14.777H58.53l8.532 14.777z"/><path d="M40.312 48.754l8.529 14.776-.916 1.588-2.6-1.497.052-.091-6.798-11.776H24.981L18.183 63.53l6.798 11.777h13.598l2.658-4.605 2.6 1.497-3.525 6.108H23.249l-8.53-14.777 8.53-14.776zM66.941 62.965l-7.214 4.164-1.51-2.592 5.724-3.305V45.136l-.918-.531 1.519-2.586 2.399 1.384zM36.059 45.136v1.029h-3v-2.762L50 33.623l7.46 4.307-1.52 2.587L50 37.088z"/></svg>
