<svg height="48" width="48" xmlns="http://www.w3.org/2000/svg" viewBox="0 0 100 100"><path d="M81.293 30.567L49.999 12.5 18.625 30.612l-1.098.639v37.5L46.512 85.48l2.158 1.245 1.329.775 1.169-.686 2.324-1.335 28.98-16.729v-37.5l-1.179-.683zM48.67 83.845l-28.645-16.54V34.309L48.67 50.847v32.998zm1.249-35.159L21.123 32.06l28.876-16.672 28.798 16.626-28.878 16.672z"/><path d="M37.97 50.298c-1.662-2.99-4.833-4.396-7.093-3.146-2.261 1.25-2.749 4.689-1.092 7.68a8.173 8.173 0 0 0 1.568 1.989l-1.948 10.543 6.791 4.369-1.214-13.307a3.786 3.786 0 0 0 1.896-.447c2.254-1.249 2.747-4.69 1.092-7.681z"/></svg>
